<?xml version="1.0" encoding="utf-8"?>
<!-- Generator: Adobe Illustrator 16.0.0, SVG Export Plug-In . SVG Version: 6.00 Build 0)  -->
<!DOCTYPE svg PUBLIC "-//W3C//DTD SVG 1.1//EN" "http://www.w3.org/Graphics/SVG/1.1/DTD/svg11.dtd">
<svg version="1.1" id="Layer_1" xmlns="http://www.w3.org/2000/svg" xmlns:xlink="http://www.w3.org/1999/xlink" x="0px" y="0px"
	 width="792px" height="82.324px" viewBox="0 0 792 82.324" enable-background="new 0 0 792 82.324" xml:space="preserve">
<g>
	<g>
		<path fill="#D2232E" d="M31.922,43.085c-0.247,0.656-1.752,4.934-1.752,5.933c0,0.685,0.276,1.437,1.197,1.437h1.079
			c0.308,0,0.337,0.124,0.337,0.249v0.687c0,0.25-0.029,0.342-0.276,0.342c-0.4,0-1.66-0.092-4.183-0.092
			c-2.247,0-2.924,0.092-3.355,0.092c-0.183,0-0.214-0.189-0.214-0.404v-0.592c0-0.188,0.031-0.281,0.214-0.281h0.799
			c0.74,0,1.477-0.439,2.091-1.374c0.434-0.659,2.616-6.089,3.632-8.838c0.245-0.622,2.738-7.334,3.015-8.176
			c0.093-0.312,0.247-0.719,0.031-1.062c-0.095-0.127-0.215-0.28-0.215-0.407c0-0.094,0.058-0.218,0.305-0.28
			c0.985-0.218,2.984-1.032,3.447-1.563c0.151-0.154,0.244-0.28,0.398-0.28c0.188,0,0.247,0.189,0.34,0.532
			c0.584,1.965,2.982,8.96,3.568,10.958c0.708,2.435,2.707,8.243,3.138,9.082c0.523,1.03,1.321,1.407,1.783,1.407h1.046
			c0.186,0,0.214,0.124,0.214,0.281v0.592c0,0.186-0.029,0.404-0.276,0.404c-0.584,0-1.232-0.092-5.166-0.092
			c-2.555,0-3.63,0.092-4.246,0.092c-0.309,0-0.341-0.189-0.341-0.404v-0.592c0-0.157,0.032-0.281,0.187-0.281h0.861
			c0.83,0,1.11-0.312,0.924-1.124c-0.275-1.122-1.478-5.12-1.844-6.245H31.922z M38.38,41.838c-0.278-0.937-2.092-7.492-2.305-8.276
			c-0.125-0.465-0.187-0.683-0.34-0.683c-0.184,0-0.278,0.124-0.37,0.403c-0.153,0.407-2.798,7.777-3.044,8.557H38.38z"/>
		<path fill="#D2232E" d="M57.854,47.549c0.091,1.156,0.581,2.905,1.598,2.905h1.199c0.185,0,0.213,0.093,0.213,0.22v0.839
			c0,0.127-0.029,0.219-0.275,0.219c-0.338,0-1.168-0.092-3.416-0.092c-2.611,0-3.689,0.092-3.965,0.092
			c-0.247,0-0.276-0.029-0.276-0.28v-0.811c0-0.094,0.029-0.187,0.181-0.187h1.264c0.985,0,1.354-1.437,1.475-2.436
			c0.276-2.215,0.556-9.583,0.556-10.144l-0.032-4.778c0-1.437-0.308-2.373-1.693-2.373h-1.015c-0.183,0-0.214-0.094-0.214-0.221
			v-0.872c0-0.094,0.031-0.185,0.214-0.185c0.309,0,1.143,0.091,4.767,0.091c1.45,0,2.401-0.091,2.772-0.091
			c0.307,0,0.552,0.029,0.738,0.531c1.968,5.307,4.18,10.489,5.904,15.17c0.338-0.593,2.677-6.402,2.863-6.838
			c0.119-0.311,3.197-7.773,3.351-8.397c0.094-0.341,0.492-0.374,1.416-0.374c4.798,0,5.844-0.091,6.183-0.091
			c0.152,0,0.185,0.091,0.185,0.28v0.719c0,0.186-0.033,0.279-0.246,0.279h-1.355c-0.707,0-0.799,0.562-0.799,1.217
			c0,0.468,0.034,8.146,0.062,8.806c0,0.621,0.092,7.461,0.092,8.021c0,1.185,0.277,1.687,0.708,1.687h1.477
			c0.182,0,0.214,0.093,0.214,0.22v0.777c0,0.188-0.032,0.28-0.278,0.28c-0.366,0-0.922-0.092-4.549-0.092
			c-3.141,0-4.338,0.092-4.739,0.092c-0.216,0-0.247-0.092-0.247-0.28v-0.777c0-0.156,0.031-0.22,0.247-0.22h1.723
			c0.522,0,0.799-0.188,0.861-1.061c0.029-0.376,0.121-6.06,0.121-8.244v-9.521h-0.182c-0.306,0.53-3.752,9.022-4.308,10.302
			c-0.643,1.437-3.382,8.366-3.536,8.647c-0.154,0.253-0.369,0.718-0.738,0.718c-0.216,0-0.401-0.22-0.553-0.561
			c-0.095-0.218-4.152-9.896-4.368-10.46c-0.554-1.433-3.384-8.43-3.631-8.801c-0.124,0.436-0.186,8.331-0.186,8.709
			C57.635,40.557,57.668,44.805,57.854,47.549z"/>
		<path fill="#D2232E" d="M95.9,39.683c1.416,0,2.771-0.096,3.142-0.185c0.521-0.127,0.953-0.407,1.413-0.97
			c0.337-0.467,0.708-1.342,0.708-1.934c0-0.221,0.09-0.282,0.245-0.282l0.831,0.094c0.152,0.029,0.277,0.062,0.247,0.246
			c-0.095,0.533-0.095,2.159-0.095,3.248c0,1.406,0.125,2.903,0.186,3.562c0.031,0.187-0.09,0.218-0.245,0.247l-0.738,0.16
			c-0.124,0.028-0.186-0.03-0.249-0.254c-0.12-0.501-0.43-1.216-0.614-1.59c-0.337-0.592-1.079-1.001-1.689-1.093
			c-0.832-0.126-1.786-0.186-3.142-0.186v1.871c0,1.686,0.155,4.714,0.155,5.277c0,1.621,0.339,2.182,0.738,2.37
			c0.463,0.188,1.046,0.281,2.583,0.281c0.523,0,1.818-0.029,2.462-0.093c0.616-0.062,1.537-0.377,2.338-1.029
			c0.797-0.657,2.522-2.593,3.136-3.342c0.124-0.128,0.217-0.156,0.309-0.095l0.523,0.311c0.124,0.065,0.154,0.157,0.124,0.254
			l-1.384,4.709c-0.095,0.28-0.31,0.47-0.678,0.47c-0.154,0-0.832-0.029-2.799-0.062c-2,0-5.26-0.029-10.581-0.029
			c-1.137,0-2.001,0.029-2.616,0.029c-0.645,0.033-1.043,0.062-1.321,0.062c-0.216,0-0.277-0.092-0.277-0.342v-0.654
			c0-0.188,0.092-0.281,0.309-0.281h0.921c1.416,0,1.538-0.22,1.538-1.313V38.684c0-2.591-0.062-6.43-0.09-6.742
			c-0.125-0.999-0.431-1.217-1.262-1.217h-1.199c-0.124,0-0.154-0.094-0.154-0.312v-0.752c0-0.09,0.03-0.214,0.216-0.214
			c0.676,0,1.752,0.091,4.553,0.091l10.795-0.029c0.494,0,1.079-0.062,1.23-0.062c0.156,0,0.214,0.062,0.247,0.153
			c0.124,0.436,1.138,4.713,1.261,5.025c0.062,0.156,0.062,0.22-0.091,0.312l-0.493,0.251c-0.123,0.063-0.277,0.03-0.37-0.124
			c-0.151-0.251-2.922-3.061-3.631-3.498c-0.646-0.407-1.503-0.812-2.334-0.841l-4.062-0.127L95.9,39.683z"/>
		<path fill="#D2232E" d="M116.603,37.436c0-2.311,0-4.31-0.029-5.151c-0.031-1.03-0.43-1.561-0.863-1.561h-1.232
			c-0.152,0-0.186-0.094-0.186-0.221v-0.843c0-0.152,0.034-0.214,0.186-0.214c0.276,0,1.232,0.091,4.585,0.091
			c1.721,0,4.432-0.091,5.691-0.091c2.398,0,4.181,0.872,5.445,2.056c1.108,1.032,1.749,2.249,1.749,3.403
			c0,3.966-2.918,5.746-5.625,5.996v0.217c0.953,0.315,1.444,0.907,2.03,1.655c0.399,0.5,2.09,3.275,2.337,3.651
			c0.186,0.281,1.846,2.655,2.461,3.373c0.37,0.404,1.537,0.656,2.247,0.656c0.214,0,0.245,0.124,0.245,0.249v0.748
			c0,0.188-0.03,0.28-0.245,0.28c-0.247,0-1.046-0.092-3.417-0.092c-0.887,0-2.028,0.062-2.919,0.092
			c-0.925-0.716-2.832-4.338-3.355-5.398c-1.046-2.123-2.308-4.432-3.784-4.432h-1.047v1.59c0,1.843,0.094,5.337,0.155,5.743
			c0.062,0.657,0.31,1.22,0.769,1.22h1.262c0.217,0,0.247,0.093,0.247,0.249v0.748c0,0.218-0.03,0.28-0.494,0.28
			c-0.029,0-0.799-0.092-4.028-0.092c-3.262,0-3.966,0.092-4.309,0.092c-0.247,0-0.247-0.092-0.247-0.31v-0.719
			c0-0.156,0-0.249,0.157-0.249h0.922c0.679,0,1.232-0.22,1.232-0.998c0.06-3.092,0.06-6.026,0.06-8.99V37.436z M120.91,40.807
			c0.584,0.032,0.956,0.032,1.23,0.032c4.062,0,5.014-3.936,5.014-5.398c0-1.438-0.493-2.813-1.167-3.499
			c-1.111-0.999-2.491-1.377-3.415-1.377c-0.524,0-0.927,0.066-1.169,0.284c-0.186,0.123-0.281,0.465-0.34,0.843L120.91,40.807z"/>
		<path fill="#D2232E" d="M143.58,38.56c0-0.748-0.093-6.368-0.123-6.775c-0.06-0.75-0.371-1.061-1.014-1.061h-1.479
			c-0.151,0-0.246-0.065-0.246-0.189v-0.904c0-0.123,0.095-0.185,0.215-0.185c0.371,0,1.94,0.091,4.954,0.091
			c3.138,0,4.122-0.091,4.553-0.091c0.154,0,0.212,0.091,0.212,0.28v0.777c0,0.156-0.092,0.221-0.244,0.221h-0.892
			c-0.768,0-1.229,0.247-1.229,0.812c0,0.309-0.093,7.208-0.093,7.583v2.406c0,0.312,0.093,7.521,0.093,7.805
			c0,0.967,0.462,1.124,1.043,1.124h1.264c0.152,0,0.247,0.063,0.247,0.22v0.868c0,0.127-0.095,0.189-0.281,0.189
			c-0.367,0-1.598-0.092-4.522-0.092c-3.228,0-4.549,0.092-4.888,0.092c-0.155,0-0.247-0.062-0.247-0.248v-0.843
			c0-0.123,0.092-0.187,0.247-0.187h0.891c0.617,0,1.262-0.093,1.386-0.843c0.059-0.471,0.152-7.212,0.152-8.864V38.56z"/>
		<path fill="#D2232E" d="M161.574,49.235c-2.275-2.059-3.352-5.648-3.352-8.333c0-3.214,1.013-6.121,3.171-8.458
			c1.75-1.908,4.304-3.371,8.115-3.371c2.803,0,5.111,0.716,6.186,1.308c0.431,0.218,0.583,0.185,0.647-0.029l0.245-0.781
			c0.059-0.186,0.122-0.186,0.582-0.186c0.462,0,0.523,0.062,0.523,0.494c0,0.596,0.557,5.902,0.711,6.841
			c0.031,0.215,0,0.374-0.154,0.402l-0.676,0.189c-0.155,0.064-0.276-0.063-0.37-0.345c-0.34-1.245-1.168-2.838-2.461-4.181
			c-1.322-1.31-2.953-2.339-5.291-2.339c-4.49,0-6.4,4.15-6.368,8.769c0,1.969,0.556,5.808,2.739,8.152
			c2,2.091,3.752,2.337,4.796,2.337c3.507,0,6.123-1.622,7.259-3.338c0.153-0.25,0.308-0.376,0.465-0.25l0.52,0.466
			c0.095,0.063,0.124,0.189,0,0.378c-1.781,2.621-4.766,5.151-9.104,5.151C165.665,52.11,163.512,50.987,161.574,49.235z"/>
		<path fill="#D2232E" d="M189.873,43.085c-0.245,0.656-1.753,4.934-1.753,5.933c0,0.685,0.281,1.437,1.201,1.437h1.079
			c0.306,0,0.336,0.124,0.336,0.249v0.687c0,0.25-0.03,0.342-0.276,0.342c-0.401,0-1.662-0.092-4.185-0.092
			c-2.243,0-2.92,0.092-3.354,0.092c-0.183,0-0.214-0.189-0.214-0.404v-0.592c0-0.188,0.031-0.281,0.214-0.281h0.803
			c0.737,0,1.474-0.439,2.092-1.374c0.43-0.659,2.614-6.089,3.631-8.838c0.242-0.622,2.732-7.334,3.011-8.176
			c0.091-0.312,0.247-0.719,0.03-1.062c-0.093-0.127-0.213-0.28-0.213-0.407c0-0.094,0.059-0.218,0.306-0.28
			c0.985-0.218,2.986-1.032,3.446-1.563c0.154-0.154,0.245-0.28,0.399-0.28c0.184,0,0.25,0.189,0.342,0.532
			c0.581,1.965,2.979,8.96,3.565,10.958c0.708,2.435,2.709,8.243,3.138,9.082c0.523,1.03,1.32,1.407,1.782,1.407h1.049
			c0.18,0,0.212,0.124,0.212,0.281v0.592c0,0.186-0.032,0.404-0.276,0.404c-0.584,0-1.232-0.092-5.167-0.092
			c-2.554,0-3.63,0.092-4.244,0.092c-0.31,0-0.34-0.189-0.34-0.404v-0.592c0-0.157,0.03-0.281,0.187-0.281h0.86
			c0.828,0,1.106-0.312,0.923-1.124c-0.281-1.122-1.479-5.12-1.85-6.245H189.873z M196.334,41.838
			c-0.277-0.937-2.089-7.492-2.307-8.276c-0.122-0.465-0.186-0.683-0.337-0.683c-0.186,0-0.277,0.124-0.371,0.403
			c-0.152,0.407-2.801,7.777-3.045,8.557H196.334z"/>
		<path fill="#D2232E" d="M230.817,42.556c0-2.778-0.031-4.308-0.095-5.87c-0.03-1.216-0.183-4.276-0.274-4.744
			c-0.184-0.783-0.926-1.217-1.633-1.217h-0.983c-0.154,0-0.186-0.094-0.186-0.279v-0.785c0-0.152,0.032-0.214,0.277-0.214
			c0.339,0,1.323,0.091,3.6,0.091c1.845,0,2.583-0.091,2.92-0.091c0.278,0,0.308,0.062,0.308,0.247v0.752
			c0,0.152-0.029,0.279-0.154,0.279h-0.862c-0.521,0-0.827,0.531-0.919,1.653c-0.215,2.092-0.709,9.148-0.709,13.265v5.344
			c0,0.465-0.031,1.028-0.461,1.028c-0.463,0-0.861-0.157-1.198-0.502c-0.525-0.497-2.03-2.154-3.878-4.366
			c-2.212-2.655-4.674-5.651-5.26-6.34c-0.523-0.623-4.769-5.994-5.475-7.027h-0.245v6.309c0,2.591,0.276,6.433,0.307,7.618
			c0.062,1.811,0.616,2.748,1.905,2.748h0.771c0.217,0,0.245,0.093,0.245,0.281v0.748c0,0.186-0.028,0.248-0.245,0.248
			c-0.307,0-2.152-0.092-3.599-0.092c-0.954,0-3.075,0.092-3.382,0.092c-0.126,0-0.158-0.062-0.158-0.28v-0.811
			c0-0.094,0.031-0.187,0.189-0.187h1.072c0.68,0,1.17-0.998,1.326-3.089c0.029-0.596,0.274-5.59,0.274-10.21v-2.809
			c0-1.841-1.104-3.593-2.642-3.622l-0.771-0.032c-0.151,0-0.182-0.127-0.182-0.218v-0.843c0-0.123,0.031-0.185,0.182-0.185
			c0.155,0,0.401,0.029,0.986,0.029c0.614,0.033,1.601,0.062,3.2,0.062c1.045,0,1.967-0.062,2.337-0.062
			c0.398,0,0.647,0.124,0.892,0.403c0.154,0.189,6.214,7.714,7.139,8.866c0.43,0.532,4.92,6.246,5.256,6.652h0.125V42.556z"/>
	</g>
	<g>
		<path fill="#D2232E" d="M261.9,43.37c0,1.467,0.032,5.711,0.059,6.087c0.063,0.687,0.369,0.997,0.863,0.997h1.568
			c0.216,0,0.246,0.094,0.246,0.219v0.812c0,0.156-0.03,0.25-0.274,0.25c-0.433,0-1.386-0.094-4.986-0.094
			c-2.707,0-3.906,0.094-4.244,0.094c-0.215,0-0.245-0.094-0.245-0.217v-0.845c0-0.154,0.03-0.219,0.179-0.219h0.803
			c1.046,0,1.26-0.153,1.355-0.937c0.029-0.311,0.122-5.182,0.122-8.803v-3.588c0-2.064-0.031-5.341-0.062-5.715
			c-0.059-0.625-0.368-0.687-0.983-0.687h-1.444c-0.154,0-0.186-0.062-0.186-0.25v-0.81c0-0.16,0.031-0.22,0.186-0.22
			c0.337,0,1.444,0.093,4.675,0.093c0.552,0,2.369-0.093,3.381-0.093c3.786,0,5.6,0.312,7.386,1.716
			c1.289,0.999,2.212,2.779,2.212,4.841c0,3.744-2.952,6.303-8.12,6.303c-0.954,0-1.661-0.031-2.49-0.091V43.37z M261.9,40.996
			c0.675,0.154,1.383,0.188,1.873,0.188c0.955,0,2.492-0.999,3.17-2.092c0.616-0.967,0.74-2.155,0.74-3.311
			c0-4.307-3.077-5.212-4.339-5.212c-0.522,0-0.892,0.029-1.444,0.156V40.996z"/>
		<path fill="#D2232E" d="M281.709,39.341c0-1.936-0.065-6.151-0.065-6.586c0-1.595-0.213-2.031-1.046-2.031h-1.259
			c-0.34,0-0.37-0.127-0.37-0.312v-0.596c0-0.186,0.03-0.373,0.339-0.373c0.521,0,1.506,0.093,4.583,0.093
			c3.012,0,4.122-0.093,4.645-0.093c0.336,0,0.369,0.093,0.369,0.344v0.656c0,0.187-0.032,0.281-0.369,0.281h-0.739
			c-1.107,0-1.261,0.531-1.355,1.714c-0.029,0.44-0.183,4.56-0.183,6.31v0.467c0,0.154,0.09,0.248,0.492,0.248h9.197
			c0.462,0,0.614-0.062,0.614-0.407v-0.309c0-1.784-0.21-6.121-0.21-6.433c-0.035-1-0.157-1.592-0.712-1.592h-1.261
			c-0.276,0-0.308-0.094-0.308-0.312v-0.687c0-0.189,0.031-0.282,0.278-0.282c0.552,0,1.875,0.093,4.49,0.093
			c2.552,0,3.845-0.093,4.246-0.093c0.368,0,0.398,0.093,0.398,0.344v0.592c0,0.218-0.03,0.345-0.398,0.345h-0.922
			c-0.895,0-0.987,0.531-0.987,1.592c0,0.439-0.059,5.713-0.059,6.869v1.061c0,0.998,0.059,6.931,0.088,8.648
			c0,1.124,0.311,1.56,1.234,1.56h1.044c0.249,0,0.278,0.094,0.278,0.282v0.687c0,0.156-0.029,0.312-0.337,0.312
			c-0.493,0-1.541-0.094-4.309-0.094c-3.137,0-4.119,0.094-4.827,0.094c-0.34,0-0.4-0.155-0.4-0.312v-0.687
			c0-0.188,0.029-0.282,0.337-0.282h1.354c0.738,0,0.831-0.595,0.86-1.373c0.062-1.469,0.122-6.495,0.122-7.49v-0.377
			c0-0.343-0.306-0.374-0.675-0.374h-9.196c-0.341,0-0.431,0.094-0.431,0.374v0.466c0,0.783,0.121,5.591,0.216,7.715
			c0.032,0.749,0.337,1.06,1.015,1.06h0.862c0.245,0,0.277,0.064,0.277,0.25v0.749c0,0.188-0.033,0.281-0.277,0.281
			c-0.554,0-1.629-0.094-4.216-0.094c-3.262,0-4.181,0.094-4.797,0.094c-0.277,0-0.311-0.094-0.311-0.344v-0.654
			c0-0.218,0.034-0.282,0.311-0.282h1.415c0.767,0,0.861-0.749,0.861-1.436c0.029-1.469,0.094-7.522,0.094-8.335V39.341z"/>
		<path fill="#D2232E" d="M313.575,38.56c0-0.748-0.092-6.368-0.122-6.775c-0.063-0.748-0.369-1.061-1.017-1.061h-1.474
			c-0.154,0-0.248-0.062-0.248-0.189v-0.904c0-0.127,0.094-0.187,0.214-0.187c0.369,0,1.938,0.093,4.954,0.093
			c3.139,0,4.122-0.093,4.555-0.093c0.153,0,0.215,0.093,0.215,0.282v0.779c0,0.158-0.095,0.22-0.247,0.22h-0.89
			c-0.771,0-1.232,0.247-1.232,0.811c0,0.312-0.095,7.214-0.095,7.587v2.401c0,0.314,0.095,7.523,0.095,7.807
			c0,0.97,0.46,1.123,1.046,1.123h1.261c0.152,0,0.245,0.064,0.245,0.219v0.874c0,0.125-0.093,0.188-0.278,0.188
			c-0.369,0-1.602-0.094-4.52-0.094c-3.23,0-4.551,0.094-4.89,0.094c-0.154,0-0.248-0.062-0.248-0.25v-0.843
			c0-0.123,0.094-0.188,0.248-0.188h0.889c0.617,0,1.264-0.092,1.386-0.843c0.062-0.47,0.154-7.211,0.154-8.863V38.56z"/>
		<path fill="#D2232E" d="M335.291,41.87c0,0.53,0,7.271,0.093,8.521h1.753c1.444,0,2.831,0,4.492-0.156
			c1.66-0.154,3.752-3.901,4.215-5.057c0.089-0.186,0.183-0.279,0.369-0.186l0.614,0.248c0.095,0.062,0.095,0.092,0.062,0.281
			c-0.092,0.22-1.323,5.369-1.508,6.212c-0.799-0.062-9.659-0.094-12.489-0.094c-3.043,0-4.152,0.094-4.551,0.094
			c-0.216,0-0.247-0.062-0.247-0.281v-0.78c0-0.154,0.031-0.219,0.217-0.219h0.951c1.139,0,1.325-0.436,1.325-0.782
			c0-0.591,0.09-8.365,0.09-10.269v-1.747c0-1.998-0.058-5.307-0.09-5.809c-0.063-0.81-0.217-1.123-0.923-1.123h-1.14
			c-0.182,0-0.212-0.156-0.212-0.312v-0.749c0-0.16,0.03-0.22,0.212-0.22c0.337,0,1.447,0.093,4.246,0.093
			c3.6,0,4.892-0.093,5.167-0.093c0.245,0,0.277,0.093,0.277,0.312v0.717c0,0.157-0.062,0.25-0.309,0.25h-1.445
			c-0.952,0-1.075,0.313-1.075,1.153c0,0.407-0.093,5.121-0.093,7.307V41.87z"/>
		<path fill="#D2232E" d="M356.238,50.081c-2.183-1.342-4.522-4.715-4.522-9.273c0-1.906,0.494-4.87,2.863-7.774
			c2.707-3.34,6.182-3.961,8.951-3.961c2.552,0,4.92,0.403,7.505,2.463c2.337,1.874,4.215,5.028,4.215,9.335
			c0,2.277-0.708,4.651-2.306,6.836c-2.002,2.528-4.617,4.403-9.478,4.403C361.344,52.11,358.667,51.608,356.238,50.081z
			 M370.42,41.119c0-6.837-4.431-10.583-7.016-10.583c-0.614,0-2.151-0.156-4.028,1.686c-1.814,1.748-2.739,5.026-2.739,7.589
			c0,7.991,4.523,10.831,7.075,10.831C369.403,50.641,370.42,43.68,370.42,41.119z"/>
		<path fill="#D2232E" d="M383.83,44.742c0.123,0,0.214,0.029,0.214,0.251c0.062,0.967,0.494,2.307,1.23,3.527
			c0.894,1.435,2.397,2.121,3.876,2.121c1.476,0,3.847-0.999,3.847-3.465c0-2.593-0.494-3.337-4.492-4.871
			c-0.924-0.344-2.892-1.342-4.462-2.713c-1.075-0.97-1.536-2.626-1.536-4.436c0-1.903,0.46-3.184,2.307-4.587
			c1.383-1.064,2.552-1.497,4.429-1.497c2.244,0,3.444,0.372,4.092,0.621c0.305,0.124,0.523,0.064,0.708-0.156l0.399-0.405
			c0.122-0.125,0.276-0.187,0.459-0.187c0.217,0,0.278,0.345,0.307,0.53l0.492,5.338c0,0.125-0.06,0.157-0.15,0.188l-0.679,0.221
			c-0.154,0.062-0.308,0-0.399-0.221c-0.34-0.905-0.863-2.122-1.909-3.246c-0.77-0.876-1.691-1.311-3.075-1.311
			c-2.308,0-3.262,2.028-3.262,2.838c0,1.158,0.031,2.092,0.801,2.875c0.799,0.843,2.554,1.591,4.061,2.03
			c1.475,0.436,2.676,1.217,3.937,2.371c1.198,1.094,1.691,2.468,1.691,4.654c0,3.807-2.673,6.898-6.736,6.898
			c-2.769,0-4.212-0.47-5.507-1.345c-0.369-0.247-0.552-0.341-0.703-0.341c-0.186,0-0.313,0.217-0.497,0.53
			c-0.186,0.343-0.34,0.373-0.554,0.373c-0.337,0-0.46-0.155-0.429-0.501l0.492-5.928c0.032-0.222,0.123-0.222,0.247-0.222
			L383.83,44.742z"/>
		<path fill="#D2232E" d="M408.745,50.081c-2.187-1.342-4.523-4.715-4.523-9.273c0-1.906,0.494-4.87,2.862-7.774
			c2.707-3.34,6.184-3.961,8.951-3.961c2.554,0,4.922,0.403,7.506,2.463c2.338,1.874,4.212,5.028,4.212,9.335
			c0,2.277-0.704,4.651-2.305,6.836c-2.001,2.528-4.615,4.403-9.475,4.403C413.852,52.11,411.176,51.608,408.745,50.081z
			 M422.926,41.119c0-6.837-4.428-10.583-7.013-10.583c-0.616,0-2.151-0.156-4.029,1.686c-1.815,1.748-2.739,5.026-2.739,7.589
			c0,7.991,4.521,10.831,7.076,10.831C421.91,50.641,422.926,43.68,422.926,41.119z"/>
		<path fill="#D2232E" d="M441.965,43.37c0,1.467,0.032,5.711,0.063,6.087c0.06,0.687,0.369,0.997,0.861,0.997h1.569
			c0.212,0,0.246,0.094,0.246,0.219v0.812c0,0.156-0.034,0.25-0.279,0.25c-0.429,0-1.384-0.094-4.982-0.094
			c-2.707,0-3.907,0.094-4.245,0.094c-0.217,0-0.245-0.094-0.245-0.217v-0.845c0-0.154,0.028-0.219,0.186-0.219h0.8
			c1.045,0,1.259-0.153,1.353-0.937c0.03-0.311,0.125-5.182,0.125-8.803v-3.588c0-2.064-0.031-5.341-0.063-5.715
			c-0.062-0.625-0.369-0.687-0.981-0.687h-1.447c-0.156,0-0.186-0.062-0.186-0.25v-0.81c0-0.16,0.029-0.22,0.186-0.22
			c0.334,0,1.447,0.093,4.673,0.093c0.555,0,2.368-0.093,3.386-0.093c3.783,0,5.597,0.312,7.381,1.716
			c1.292,0.999,2.215,2.779,2.215,4.841c0,3.744-2.952,6.303-8.119,6.303c-0.956,0-1.663-0.031-2.494-0.091V43.37z M441.965,40.996
			c0.678,0.154,1.386,0.188,1.877,0.188c0.955,0,2.493-0.999,3.171-2.092c0.613-0.967,0.737-2.155,0.737-3.311
			c0-4.307-3.079-5.212-4.339-5.212c-0.521,0-0.892,0.029-1.446,0.156V40.996z"/>
		<path fill="#D2232E" d="M461.778,39.341c0-1.936-0.065-6.151-0.065-6.586c0-1.595-0.214-2.031-1.045-2.031h-1.261
			c-0.338,0-0.37-0.127-0.37-0.312v-0.596c0-0.186,0.032-0.373,0.34-0.373c0.523,0,1.508,0.093,4.581,0.093
			c3.017,0,4.125-0.093,4.646-0.093c0.34,0,0.37,0.093,0.37,0.344v0.656c0,0.187-0.03,0.281-0.37,0.281h-0.735
			c-1.108,0-1.263,0.531-1.356,1.714c-0.031,0.44-0.184,4.56-0.184,6.31v0.467c0,0.154,0.092,0.248,0.495,0.248h9.194
			c0.462,0,0.618-0.062,0.618-0.407v-0.309c0-1.784-0.22-6.121-0.22-6.433c-0.029-1-0.151-1.592-0.706-1.592h-1.259
			c-0.281,0-0.309-0.094-0.309-0.312v-0.687c0-0.189,0.027-0.282,0.276-0.282c0.553,0,1.877,0.093,4.49,0.093
			c2.557,0,3.842-0.093,4.246-0.093c0.367,0,0.399,0.093,0.399,0.344v0.592c0,0.218-0.032,0.345-0.399,0.345h-0.923
			c-0.894,0-0.985,0.531-0.985,1.592c0,0.439-0.062,5.713-0.062,6.869v1.061c0,0.998,0.062,6.931,0.093,8.648
			c0,1.124,0.309,1.56,1.232,1.56h1.045c0.245,0,0.276,0.094,0.276,0.282v0.687c0,0.156-0.031,0.312-0.338,0.312
			c-0.492,0-1.539-0.094-4.305-0.094c-3.139,0-4.124,0.094-4.831,0.094c-0.336,0-0.401-0.155-0.401-0.312v-0.687
			c0-0.188,0.03-0.282,0.339-0.282h1.354c0.738,0,0.831-0.595,0.859-1.373c0.064-1.469,0.128-6.495,0.128-7.49v-0.377
			c0-0.343-0.31-0.374-0.678-0.374h-9.198c-0.34,0-0.432,0.094-0.432,0.374v0.466c0,0.783,0.123,5.591,0.213,7.715
			c0.032,0.749,0.343,1.06,1.019,1.06h0.861c0.244,0,0.275,0.064,0.275,0.25v0.749c0,0.188-0.031,0.281-0.275,0.281
			c-0.553,0-1.63-0.094-4.213-0.094c-3.262,0-4.186,0.094-4.801,0.094c-0.277,0-0.309-0.094-0.309-0.344v-0.654
			c0-0.218,0.031-0.282,0.309-0.282h1.415c0.771,0,0.863-0.749,0.863-1.436c0.027-1.469,0.093-7.522,0.093-8.335V39.341z"/>
		<path fill="#D2232E" d="M493.643,38.56c0-0.748-0.091-6.368-0.123-6.775c-0.059-0.748-0.368-1.061-1.014-1.061h-1.479
			c-0.151,0-0.243-0.062-0.243-0.189v-0.904c0-0.127,0.092-0.187,0.215-0.187c0.368,0,1.94,0.093,4.951,0.093
			c3.139,0,4.122-0.093,4.555-0.093c0.152,0,0.214,0.093,0.214,0.282v0.779c0,0.158-0.09,0.22-0.244,0.22h-0.896
			c-0.766,0-1.228,0.247-1.228,0.811c0,0.312-0.093,7.214-0.093,7.587v2.401c0,0.314,0.093,7.523,0.093,7.807
			c0,0.97,0.462,1.123,1.046,1.123h1.261c0.154,0,0.245,0.064,0.245,0.219v0.874c0,0.125-0.091,0.188-0.273,0.188
			c-0.371,0-1.603-0.094-4.524-0.094c-3.231,0-4.552,0.094-4.892,0.094c-0.152,0-0.245-0.062-0.245-0.25v-0.843
			c0-0.123,0.093-0.188,0.245-0.188h0.894c0.613,0,1.261-0.092,1.385-0.843c0.062-0.47,0.152-7.211,0.152-8.863V38.56z"/>
		<path fill="#D2232E" d="M511.637,49.235c-2.273-2.059-3.352-5.647-3.352-8.333c0-3.217,1.017-6.12,3.171-8.463
			c1.75-1.903,4.304-3.367,8.116-3.367c2.799,0,5.107,0.716,6.185,1.308c0.433,0.218,0.587,0.189,0.646-0.029l0.245-0.783
			c0.062-0.187,0.124-0.187,0.582-0.187c0.464,0,0.525,0.063,0.525,0.5c0,0.592,0.555,5.899,0.707,6.837
			c0.031,0.217,0,0.374-0.152,0.407l-0.676,0.184c-0.158,0.064-0.28-0.063-0.373-0.345c-0.337-1.245-1.165-2.837-2.461-4.181
			c-1.322-1.311-2.95-2.341-5.289-2.341c-4.49,0-6.397,4.15-6.367,8.772c0,1.967,0.555,5.806,2.739,8.149
			c1.997,2.091,3.75,2.339,4.796,2.339c3.51,0,6.123-1.623,7.262-3.339c0.154-0.25,0.307-0.377,0.46-0.25l0.522,0.465
			c0.093,0.066,0.124,0.189,0,0.378c-1.783,2.621-4.766,5.151-9.104,5.151C515.728,52.11,513.575,50.986,511.637,49.235z"/>
		<path fill="#D2232E" d="M539.322,43.085c-0.245,0.656-1.753,4.934-1.753,5.933c0,0.687,0.276,1.436,1.2,1.436h1.073
			c0.31,0,0.34,0.125,0.34,0.25v0.687c0,0.25-0.03,0.344-0.279,0.344c-0.398,0-1.659-0.094-4.181-0.094
			c-2.247,0-2.922,0.094-3.355,0.094c-0.183,0-0.214-0.188-0.214-0.406v-0.592c0-0.188,0.031-0.282,0.214-0.282h0.802
			c0.739,0,1.477-0.436,2.093-1.373c0.43-0.654,2.615-6.089,3.63-8.835c0.247-0.625,2.739-7.336,3.015-8.18
			c0.092-0.311,0.245-0.718,0.028-1.061c-0.09-0.127-0.213-0.28-0.213-0.407c0-0.093,0.06-0.218,0.306-0.28
			c0.987-0.218,2.986-1.028,3.446-1.56c0.154-0.158,0.245-0.282,0.4-0.282c0.185,0,0.245,0.187,0.338,0.53
			c0.585,1.965,2.984,8.96,3.565,10.958c0.71,2.435,2.711,8.241,3.141,9.082c0.521,1.033,1.322,1.406,1.785,1.406h1.043
			c0.186,0,0.221,0.125,0.221,0.282v0.592c0,0.189-0.035,0.406-0.281,0.406c-0.584,0-1.23-0.094-5.167-0.094
			c-2.553,0-3.628,0.094-4.246,0.094c-0.309,0-0.34-0.188-0.34-0.406v-0.592c0-0.157,0.031-0.282,0.187-0.282h0.859
			c0.834,0,1.11-0.311,0.925-1.123c-0.276-1.124-1.474-5.12-1.845-6.245H539.322z M545.782,41.838
			c-0.276-0.937-2.095-7.494-2.309-8.272c-0.125-0.469-0.186-0.687-0.339-0.687c-0.184,0-0.276,0.125-0.367,0.403
			c-0.155,0.407-2.801,7.774-3.048,8.557H545.782z"/>
		<path fill="#D2232E" d="M568.358,41.87c0,0.53,0,7.271,0.094,8.521h1.753c1.443,0,2.829,0,4.491-0.156
			c1.66-0.154,3.752-3.901,4.214-5.057c0.091-0.186,0.184-0.279,0.366-0.186l0.618,0.248c0.091,0.062,0.091,0.092,0.062,0.281
			c-0.091,0.22-1.322,5.369-1.508,6.212c-0.799-0.062-9.657-0.094-12.487-0.094c-3.048,0-4.156,0.094-4.554,0.094
			c-0.215,0-0.245-0.062-0.245-0.281v-0.78c0-0.154,0.03-0.219,0.216-0.219h0.954c1.135,0,1.319-0.436,1.319-0.782
			c0-0.591,0.095-8.365,0.095-10.269v-1.747c0-1.998-0.063-5.307-0.095-5.809c-0.06-0.81-0.216-1.123-0.92-1.123h-1.141
			c-0.184,0-0.213-0.156-0.213-0.312v-0.749c0-0.16,0.029-0.22,0.213-0.22c0.34,0,1.447,0.093,4.246,0.093
			c3.598,0,4.893-0.093,5.169-0.093c0.244,0,0.276,0.093,0.276,0.312v0.717c0,0.157-0.062,0.25-0.309,0.25h-1.446
			c-0.951,0-1.075,0.313-1.075,1.153c0,0.407-0.094,5.121-0.094,7.307V41.87z"/>
	</g>
	<g>
		<path fill="#D2232E" d="M600.546,44.927c0.124,0,0.217,0.034,0.217,0.251c0.062,0.967,0.491,2.312,1.229,3.527
			c0.893,1.438,2.4,2.126,3.877,2.126c1.474,0,3.845-1.002,3.845-3.466c0-2.595-0.494-3.341-4.492-4.872
			c-0.92-0.345-2.892-1.342-4.459-2.719c-1.077-0.963-1.54-2.62-1.54-4.43c0-1.906,0.463-3.185,2.309-4.591
			c1.382-1.061,2.554-1.497,4.43-1.497c2.245,0,3.444,0.374,4.09,0.625c0.309,0.124,0.523,0.062,0.709-0.156l0.4-0.407
			c0.123-0.124,0.274-0.188,0.46-0.188c0.217,0,0.276,0.343,0.308,0.532l0.491,5.338c0,0.124-0.062,0.154-0.151,0.186l-0.68,0.219
			c-0.153,0.062-0.305,0-0.398-0.219c-0.34-0.907-0.86-2.124-1.906-3.246c-0.771-0.875-1.694-1.311-3.077-1.311
			c-2.307,0-3.26,2.03-3.26,2.84c0,1.158,0.031,2.093,0.797,2.873c0.801,0.842,2.556,1.594,4.063,2.032
			c1.477,0.436,2.674,1.211,3.936,2.372c1.2,1.089,1.691,2.462,1.691,4.649c0,3.808-2.674,6.898-6.735,6.898
			c-2.771,0-4.215-0.47-5.505-1.341c-0.369-0.251-0.553-0.343-0.709-0.343c-0.183,0-0.306,0.22-0.491,0.531
			c-0.184,0.341-0.338,0.374-0.555,0.374c-0.337,0-0.462-0.16-0.428-0.501l0.489-5.932c0.029-0.215,0.123-0.215,0.246-0.215
			L600.546,44.927z"/>
		<path fill="#D2232E" d="M624.846,50.266c-2.183-1.343-4.522-4.714-4.522-9.271c0-1.904,0.494-4.869,2.862-7.775
			c2.709-3.339,6.184-3.963,8.951-3.963c2.554,0,4.922,0.407,7.504,2.465c2.34,1.873,4.216,5.026,4.216,9.337
			c0,2.277-0.706,4.649-2.308,6.837c-1.999,2.528-4.614,4.399-9.474,4.399C629.951,52.295,627.276,51.797,624.846,50.266z
			 M639.029,41.306c0-6.836-4.432-10.582-7.016-10.582c-0.616,0-2.152-0.156-4.03,1.686c-1.815,1.748-2.736,5.027-2.736,7.584
			c0,7.995,4.52,10.837,7.072,10.837C638.01,50.832,639.029,43.87,639.029,41.306z"/>
		<path fill="#D2232E" d="M653.821,49.425c-2.276-2.06-3.352-5.653-3.352-8.337c0-3.213,1.014-6.119,3.169-8.457
			c1.752-1.907,4.305-3.375,8.121-3.375c2.799,0,5.105,0.72,6.182,1.312c0.431,0.218,0.584,0.185,0.645-0.033l0.248-0.777
			c0.062-0.188,0.121-0.188,0.582-0.188c0.463,0,0.525,0.061,0.525,0.497c0,0.592,0.554,5.899,0.708,6.84
			c0.031,0.214,0,0.373-0.154,0.403l-0.677,0.187c-0.154,0.063-0.276-0.06-0.369-0.342c-0.34-1.248-1.168-2.839-2.461-4.182
			c-1.322-1.313-2.953-2.343-5.291-2.343c-4.489,0-6.398,4.15-6.368,8.772c0,1.969,0.555,5.805,2.737,8.146
			c2,2.092,3.751,2.343,4.801,2.343c3.505,0,6.12-1.623,7.257-3.339c0.154-0.251,0.309-0.376,0.462-0.251l0.525,0.468
			c0.09,0.062,0.121,0.188,0,0.377c-1.786,2.62-4.77,5.148-9.107,5.148C657.914,52.295,655.762,51.172,653.821,49.425z"/>
		<path fill="#D2232E" d="M681.138,38.745c0-0.746-0.091-6.363-0.125-6.772c-0.061-0.749-0.369-1.062-1.013-1.062h-1.478
			c-0.152,0-0.247-0.062-0.247-0.186V29.82c0-0.127,0.095-0.189,0.217-0.189c0.368,0,1.939,0.095,4.952,0.095
			c3.139,0,4.121-0.095,4.554-0.095c0.154,0,0.215,0.095,0.215,0.284v0.777c0,0.156-0.093,0.218-0.247,0.218h-0.892
			c-0.769,0-1.229,0.25-1.229,0.812c0,0.312-0.093,7.212-0.093,7.586v2.405c0,0.312,0.093,7.521,0.093,7.804
			c0,0.968,0.461,1.124,1.046,1.124h1.262c0.152,0,0.244,0.062,0.244,0.219v0.874c0,0.124-0.092,0.186-0.276,0.186
			c-0.368,0-1.601-0.094-4.523-0.094c-3.229,0-4.551,0.094-4.891,0.094c-0.152,0-0.243-0.062-0.243-0.25v-0.838
			c0-0.128,0.091-0.19,0.243-0.19h0.892c0.615,0,1.263-0.094,1.384-0.841c0.065-0.47,0.156-7.215,0.156-8.867V38.745z"/>
		<path fill="#D2232E" d="M704.022,39.868c1.415,0,2.769-0.093,3.138-0.185c0.522-0.125,0.954-0.404,1.416-0.968
			c0.336-0.466,0.706-1.341,0.706-1.936c0-0.217,0.091-0.283,0.245-0.283l0.83,0.095c0.154,0.031,0.28,0.065,0.249,0.25
			c-0.095,0.532-0.095,2.157-0.095,3.248c0,1.405,0.126,2.901,0.186,3.559c0.031,0.19-0.091,0.221-0.247,0.249l-0.735,0.155
			c-0.125,0.034-0.188-0.028-0.247-0.245c-0.124-0.503-0.433-1.223-0.616-1.597c-0.337-0.592-1.075-0.998-1.691-1.093
			c-0.831-0.123-1.784-0.186-3.138-0.186v1.873c0,1.686,0.154,4.715,0.154,5.274c0,1.626,0.339,2.186,0.739,2.374
			c0.46,0.187,1.045,0.281,2.584,0.281c0.522,0,1.813-0.032,2.462-0.095c0.613-0.062,1.534-0.375,2.336-1.029
			c0.8-0.656,2.522-2.592,3.14-3.343c0.121-0.124,0.215-0.154,0.305-0.092l0.522,0.311c0.127,0.065,0.154,0.156,0.127,0.253
			l-1.386,4.714c-0.093,0.279-0.308,0.465-0.676,0.465c-0.154,0-0.834-0.032-2.799-0.062c-2.004,0-5.264-0.032-10.586-0.032
			c-1.137,0-1.997,0.032-2.611,0.032c-0.646,0.029-1.048,0.062-1.324,0.062c-0.216,0-0.275-0.094-0.275-0.344V50.92
			c0-0.185,0.092-0.279,0.305-0.279h0.924c1.416,0,1.538-0.217,1.538-1.311V38.872c0-2.588-0.062-6.429-0.091-6.741
			c-0.125-1.002-0.433-1.221-1.264-1.221h-1.2c-0.12,0-0.152-0.094-0.152-0.312V29.85c0-0.091,0.032-0.218,0.216-0.218
			c0.678,0,1.752,0.095,4.554,0.095l10.794-0.033c0.492,0,1.079-0.062,1.233-0.062c0.152,0,0.215,0.062,0.245,0.157
			c0.121,0.436,1.139,4.713,1.262,5.025c0.058,0.157,0.058,0.22-0.092,0.312l-0.493,0.25c-0.123,0.065-0.278,0.031-0.37-0.125
			c-0.149-0.249-2.922-3.059-3.631-3.497c-0.645-0.407-1.506-0.812-2.337-0.844l-4.058-0.124L704.022,39.868z"/>
		<path fill="#D2232E" d="M730.388,31.161h-1.08c-0.983,0-2.827,0.033-4.122,0.5c-0.676,0.5-2.031,2.403-2.798,3.528
			c-0.093,0.157-0.187,0.253-0.308,0.219l-0.677-0.251c-0.123-0.031-0.154-0.187-0.123-0.281c0.34-1.309,1.352-5.429,1.477-6.055
			c0.093-0.405,0.245-0.532,0.462-0.532c0.215,0,0.306,0.127,0.582,0.471c0.339,0.438,0.924,0.717,2.031,0.779
			c1.631,0.094,2.92,0.189,6.12,0.189h1.784c3.355,0,4.678-0.127,5.971-0.189c0.677-0.029,1.875-0.405,2.244-0.779
			c0.306-0.312,0.49-0.471,0.706-0.471c0.218,0,0.309,0.127,0.371,0.5c0.091,0.688,0.675,4.557,0.92,6.215
			c0.032,0.124-0.026,0.249-0.122,0.282l-0.646,0.25c-0.122,0.029-0.184-0.065-0.306-0.284c-0.68-1.124-1.88-2.746-2.646-3.497
			c-0.771-0.466-3.507-0.594-4.216-0.594h-1.015v8.583c0,0.44,0,9.18,0.03,9.65c0.062,0.782,0.309,1.247,1.045,1.247h1.385
			c0.278,0,0.31,0.095,0.31,0.313v0.715c0,0.156-0.031,0.25-0.31,0.25c-0.307,0-1.293-0.094-4.704-0.094
			c-3.262,0-4.555,0.094-4.983,0.094c-0.249,0-0.28-0.122-0.28-0.373v-0.592c0-0.219,0.031-0.313,0.215-0.313h1.572
			c0.615,0,0.985-0.375,1.043-0.935c0.066-0.655,0.066-10.242,0.066-10.834V31.161z"/>
		<path fill="#D2232E" d="M760.097,46.021c0,1.218,0.096,3.25,0.127,3.527c0.091,0.999,0.55,1.093,1.041,1.093h0.894
			c0.216,0,0.216,0.095,0.216,0.219v0.78c0,0.186,0,0.279-0.216,0.279c-0.365,0-1.567-0.094-4.459-0.094
			c-3.2,0-4.151,0.094-4.491,0.094c-0.122,0-0.183-0.094-0.183-0.312V50.86c0-0.124,0.029-0.219,0.213-0.219h1.078
			c0.802,0,1.047-0.312,1.076-0.718c0.033-0.437,0.092-2.903,0.092-5.808v-1.342c-0.493-0.967-5.414-10.084-6.179-11.143
			c-0.375-0.471-1.112-0.721-1.604-0.721h-0.462c-0.184,0-0.215-0.094-0.215-0.218V29.82c0-0.127,0.031-0.189,0.215-0.189
			c0.279,0,1.723,0.095,4.461,0.095c3.168,0,4.274-0.095,4.583-0.095c0.188,0,0.217,0.062,0.217,0.218v0.781
			c0,0.156-0.029,0.279-0.217,0.279h-0.706c-0.429,0-0.741,0.314-0.741,0.812c0,0.563,3.661,7.713,4.494,9.526
			c0.922-1.719,4.612-8.308,4.612-9.276c0-0.53-0.523-1.062-1.168-1.062h-0.831c-0.186,0-0.217-0.094-0.217-0.279V29.82
			c0-0.127,0.031-0.189,0.217-0.189c0.306,0,1.566,0.095,3.845,0.095c2.123,0,2.799-0.095,3.076-0.095
			c0.214,0,0.248,0.062,0.248,0.25v0.749c0,0.185-0.034,0.279-0.248,0.279h-0.556c-0.367,0-1.291,0.189-1.751,0.75
			c-0.4,0.5-5.198,8.493-6.462,10.896V46.021z"/>
	</g>
</g>
</svg>
